#tb 0: 1/25
#media_type 0: video
#codec_id 0: rawvideo
#dimensions 0: 416x240
#sar 0: 0/1
0,          0,          0,        1,   149760, 0x8ce7200b
0,          1,          1,        1,   149760, 0xf97412f6
0,          2,          2,        1,   149760, 0x0ea132c4
